<?xml version="1.0" standalone="no"?>
<!DOCTYPE svg PUBLIC "-//W3C//DTD SVG 20010904//EN"
 "http://www.w3.org/TR/2001/REC-SVG-20010904/DTD/svg10.dtd">
<svg version="1.0" xmlns="http://www.w3.org/2000/svg"
 width="270.000000pt" height="270.000000pt" viewBox="0 0 270.000000 270.000000"
 preserveAspectRatio="xMidYMid meet">

<g transform="translate(0.000000,270.000000) scale(0.100000,-0.100000)"
fill="#000000" stroke="none">
<path d="M1176 1728 c-9 -13 -16 -43 -16 -70 l0 -48 -139 0 c-125 0 -141 -2
-165 -21 -25 -20 -26 -23 -26 -140 l0 -119 525 0 525 0 0 99 c0 55 -5 112 -10
127 -19 49 -34 53 -187 54 l-143 0 0 53 c0 84 -7 87 -193 87 -150 0 -156 -1
-171 -22z m294 -83 l0 -35 -120 0 -120 0 0 35 0 35 120 0 120 0 0 -35z"/>
<path d="M830 1136 c0 -144 0 -145 26 -165 26 -21 36 -21 499 -21 l473 0 26
31 c25 30 26 35 26 165 l0 134 -205 0 -205 0 0 -39 c0 -71 -1 -71 -115 -71
-116 0 -119 2 -120 65 l0 40 -202 3 -203 2 0 -144z"/>
<path d="M1290 1255 c0 -39 1 -40 65 -39 60 0 60 0 63 32 l3 32 -65 0 c-64 0
-66 -1 -66 -25z"/>
</g>
</svg>
