<?xml version="1.0" standalone="no"?>
<!DOCTYPE svg PUBLIC "-//W3C//DTD SVG 20010904//EN"
 "http://www.w3.org/TR/2001/REC-SVG-20010904/DTD/svg10.dtd">
<svg version="1.0" xmlns="http://www.w3.org/2000/svg"
 width="200.000000pt" height="200.000000pt" viewBox="0 0 200.000000 200.000000"
 preserveAspectRatio="xMidYMid meet">

<g transform="translate(0.000000,200.000000) scale(0.100000,-0.100000)"
fill="#000000" stroke="none">
<path d="M1377 1282 c-344 -175 -503 -267 -554 -320 l-43 -44 20 -28 c11 -15
24 -39 30 -54 5 -14 15 -26 22 -26 53 0 250 133 513 345 131 106 290 255 271
255 -4 0 -121 -58 -259 -128z"/>
<path d="M655 906 c-39 -17 -71 -48 -122 -118 -44 -59 -81 -90 -134 -112 l-33
-14 42 -21 c172 -88 322 -48 401 107 17 34 18 41 5 77 -7 22 -27 52 -44 68
-33 30 -68 34 -115 13z"/>
</g>
</svg>
