<?xml version="1.0" standalone="no"?>
<!DOCTYPE svg PUBLIC "-//W3C//DTD SVG 20010904//EN"
 "http://www.w3.org/TR/2001/REC-SVG-20010904/DTD/svg10.dtd">
<svg version="1.0" xmlns="http://www.w3.org/2000/svg"
 width="175.000000pt" height="175.000000pt" viewBox="0 0 175.000000 175.000000"
 preserveAspectRatio="xMidYMid meet">

<g transform="translate(0.000000,175.000000) scale(0.100000,-0.100000)"
fill="#000000" stroke="none">
<path d="M942 1246 c-5 -6 -25 -67 -44 -136 -20 -69 -61 -212 -93 -319 -31
-106 -55 -195 -53 -196 2 -2 15 -6 29 -10 26 -7 28 -5 57 92 17 54 40 132 51
173 11 41 41 144 65 229 25 85 43 158 41 162 -9 13 -44 17 -53 5z"/>
<path d="M535 1040 l-119 -121 127 -127 127 -127 22 23 23 22 -103 102 -102
103 102 102 c87 88 101 106 92 121 -24 38 -47 25 -169 -98z"/>
<path d="M1052 1148 c-7 -7 -12 -17 -12 -23 0 -6 45 -55 100 -110 l100 -100
-102 -102 -103 -103 23 -22 22 -23 127 127 127 127 -119 121 c-65 66 -126 120
-135 120 -9 0 -21 -5 -28 -12z"/>
</g>
</svg>
