<?xml version="1.0" standalone="no"?>
<!DOCTYPE svg PUBLIC "-//W3C//DTD SVG 20010904//EN"
 "http://www.w3.org/TR/2001/REC-SVG-20010904/DTD/svg10.dtd">
<svg version="1.0" xmlns="http://www.w3.org/2000/svg"
 width="200.000000pt" height="200.000000pt" viewBox="0 0 200.000000 200.000000"
 preserveAspectRatio="xMidYMid meet">

<g transform="translate(0.000000,200.000000) scale(0.100000,-0.100000)"
fill="#000000" stroke="none">
<path d="M1170 1506 c-13 -34 -160 -285 -171 -291 -4 -3 -45 30 -91 75 -46 44
-86 80 -90 80 -14 0 -9 -30 5 -30 6 -1 44 -32 84 -69 l72 -68 -40 -12 c-22 -7
-43 -19 -46 -27 -4 -11 -33 -14 -154 -14 -136 0 -151 -2 -169 -20 -19 -19 -20
-33 -20 -319 l0 -300 26 -20 c26 -20 37 -21 426 -21 l399 0 24 25 25 24 0 296
c0 282 -1 296 -20 315 -18 18 -33 20 -165 20 -130 0 -147 2 -164 19 -11 11
-35 23 -54 26 l-35 7 85 141 c46 78 88 144 93 145 13 5 13 29 0 37 -6 3 -14
-5 -20 -19z m-87 -338 c9 -5 17 -11 17 -13 0 -3 -46 -5 -102 -5 -75 0 -99 3
-91 11 27 27 130 31 176 7z m328 -38 c18 -10 19 -24 19 -313 0 -222 -3 -306
-12 -315 -17 -17 -819 -17 -836 0 -9 9 -12 93 -12 315 0 277 1 303 18 312 24
14 796 15 823 1z"/>
<path d="M626 1074 c-14 -13 -16 -51 -16 -263 0 -227 2 -249 18 -264 16 -15
53 -17 319 -17 278 0 301 1 316 18 15 16 17 50 17 265 0 210 -2 248 -16 261
-13 14 -56 16 -319 16 -263 0 -306 -2 -319 -16z m628 -10 c14 -13 16 -50 16
-254 0 -235 0 -239 -22 -254 -33 -24 -573 -24 -606 0 -22 15 -22 19 -22 254 0
204 2 241 16 254 13 14 55 16 309 16 254 0 296 -2 309 -16z"/>
<path d="M1320 1011 c-16 -31 4 -63 37 -59 34 4 52 32 37 56 -16 26 -60 28
-74 3z m60 -6 c10 -12 10 -18 0 -30 -25 -30 -61 -7 -46 30 3 8 12 15 19 15 8
0 20 -7 27 -15z"/>
<path d="M1320 901 c-16 -31 4 -63 37 -59 34 4 52 32 37 56 -16 26 -60 28 -74
3z m60 -6 c10 -12 10 -18 0 -30 -25 -30 -61 -7 -46 30 3 8 12 15 19 15 8 0 20
-7 27 -15z"/>
<path d="M1324 769 c-20 -22 -13 -43 19 -63 36 -23 75 36 47 70 -17 20 -44 17
-66 -7z m61 -24 c0 -22 -31 -33 -47 -17 -17 17 -1 44 24 40 15 -2 23 -10 23
-23z"/>
<path d="M1324 659 c-20 -22 -13 -43 19 -63 36 -23 75 36 47 70 -17 20 -44 17
-66 -7z m61 -24 c0 -22 -31 -33 -47 -17 -17 17 -1 44 24 40 15 -2 23 -10 23
-23z"/>
</g>
</svg>
