<?xml version="1.0" standalone="no"?>
<!DOCTYPE svg PUBLIC "-//W3C//DTD SVG 20010904//EN"
 "http://www.w3.org/TR/2001/REC-SVG-20010904/DTD/svg10.dtd">
<svg version="1.0" xmlns="http://www.w3.org/2000/svg"
 width="100.000000pt" height="100.000000pt" viewBox="0 0 100.000000 100.000000"
 preserveAspectRatio="xMidYMid meet">

<g transform="translate(0.000000,100.000000) scale(0.100000,-0.100000)"
fill="#000000" stroke="none">
<path d="M332 858 c-9 -9 -12 -102 -12 -359 0 -303 2 -348 16 -360 19 -16 311
-14 331 3 18 15 19 698 1 716 -17 17 -319 17 -336 0z m196 -35 c-16 -2 -40 -2
-55 0 -16 2 -3 4 27 4 30 0 43 -2 28 -4z m132 -323 l0 -280 -160 0 -160 0 0
280 0 280 160 0 160 0 0 -280z m-140 -315 c15 -18 5 -35 -20 -35 -10 0 -22 5
-25 10 -7 11 12 40 25 40 4 0 13 -7 20 -15z"/>
</g>
</svg>
