<?xml version="1.0" standalone="no"?>
<!DOCTYPE svg PUBLIC "-//W3C//DTD SVG 20010904//EN"
 "http://www.w3.org/TR/2001/REC-SVG-20010904/DTD/svg10.dtd">
<svg version="1.0" xmlns="http://www.w3.org/2000/svg"
 width="150.000000pt" height="150.000000pt" viewBox="0 0 150.000000 150.000000"
 preserveAspectRatio="xMidYMid meet">

<g transform="translate(0.000000,150.000000) scale(0.100000,-0.100000)"
fill="#000000" stroke="none">
<path d="M334 1066 c-3 -13 -4 -142 -2 -286 2 -218 5 -262 18 -270 8 -5 75
-10 148 -10 125 0 132 -1 132 -20 0 -19 7 -20 119 -20 110 0 119 1 124 20 5
19 14 20 140 20 87 0 138 4 143 11 10 17 17 322 9 457 l-7 122 -409 0 -409 0
-6 -24z m786 -271 l0 -245 -370 0 -370 0 0 245 0 245 370 0 370 0 0 -245z"/>
<path d="M487 433 c-20 -20 16 -23 253 -23 226 0 259 2 254 15 -5 13 -43 15
-253 15 -136 0 -251 -3 -254 -7z"/>
</g>
</svg>
